<?xml version="1.0" encoding="UTF-8"?>
<svg viewBox="0 0 521.48456 957.9425" xmlns="http://www.w3.org/2000/svg">
 <g transform="translate(-26.866 -37.115)">
  <path d="m51.53 940.77c-18.373-21.153-27.437-53.229-23.915-84.085 3.6236-35.775 31.633-63.971 23.915-102.65-3.8287-84.26-31.467-157.24-6.8018-234.15 26.021-108.28 112.92-141.18 175.78-192.55 14.983-5.1538 26.065-15.681 36.088-28.072 11.753-9.1929 21.965-20.53 29.878-31.467 9.0474-27.524 4.3-61.767 18.719-88.708 10.038-17.346 18.474-36.48 33-50.217 65.693-16.152 60.261-82.172 84.28-90.888 34.18-9.4592 11.324 61.082 26.658 82.712 26.441 1.1116 45.114 15.76 58.844 34.23 8.2099 18.714 35.014 16.848 39.653 35.29 3.9579 16.806-9.1352 38.478-21.629 51.527-10.986 12.288-27.134 14.366-35.3 28.76-12.708 28.471 4.273 67.531 5.3245 99.514-1.6901 33.542 2.8102 70.758-17.335 97.78-3.0206 21.83-23.195 31.623-30.341 51.688-16.413 28.237-42.353 77.827-41.312 111.55 0.33069 52.629 19.951 115.32 27.888 167.24 18.694 9.2031 57.595-0.39081 51.941 22.344-24.918 41.426-170.65 34.301-198.64 36.821-58.195-1.4881-118 2.1668-174.78-6.8493-33.601-10.436-39.406 16.642-31.028 45.483 8.0301 15.138 19.151 27.569 34.168 36.539 25.625 9.5963 52.35 21.575 82.232 20.793 32.172 5.176 59.141 1.054 93.075-2.4549 20.675-11.455 108.15-7.4499 61.448 17.791-94.444 42.461-258.65 33.847-301.82-27.966z"/>
 </g>
</svg>
