<svg viewBox="0 0 2058 1685" fill="none" xmlns="http://www.w3.org/2000/svg">
<path d="M15.22 1645.1C49.72 1652.64 84.48 1655.52 119.58 1650.19C141.13 1646.92 166.58 1626.19 166.05 1625.01C174.33 1620.01 182.14 1612.16 191.05 1610.68C206.9 1608.03 219.73 1602.14 230.59 1590.51C264.93 1553.74 301.53 1519.68 345.04 1493.62C354.28 1488.08 431.42 1437.62 452.16 1407.1C457.4 1399.4 466.76 1394.42 474.49 1388.53C485.82 1379.88 526.49 1342.94 532.31 1328.87C538.52 1313.87 555.55 1302.37 569.68 1291.78C585.21 1280.14 604.93 1274.73 618.51 1259.41C621.35 1256.21 631.81 1254.73 634.29 1257.11C648.2 1270.47 665.53 1265.54 681.39 1267.84C703.97 1271.12 727.15 1271.78 749.11 1277.36C766.01 1281.65 780.34 1292.52 789.51 1309.28C800.51 1329.39 848.86 1414.28 860.14 1437.57C873.05 1464.27 905.84 1545.73 908.55 1559.78C910.06 1567.58 905.71 1571.48 897 1573.78C878.26 1578.78 859.44 1588.14 857.19 1609.09C855.69 1623.02 863.27 1637.96 867.19 1652.35C867.52 1653.58 870.55 1654.56 872.43 1654.81C907.84 1659.45 943.1 1666.81 979.11 1659.81C989.5 1657.81 993.55 1653.35 996.63 1641.93C1005.91 1607.51 995.63 1574.07 995.71 1540.24C995.71 1530.16 987.82 1468.02 982.5 1446.97C976 1421.2 947.19 1262.73 945.83 1246.47C957.59 1243.47 968.38 1240.76 979.13 1237.9C981.9 1237.16 985.52 1236.71 987.13 1234.78C998.18 1221.21 1201.06 1232.62 1213.37 1234.46C1230.37 1237.01 1280.08 1244.26 1287.87 1244.7C1297.61 1245.25 1308.46 1246.13 1317.08 1242.59C1339.08 1233.53 1371.08 1245.59 1379.26 1272.18C1386.36 1295.18 1395.68 1317.72 1412.67 1336.29C1427.24 1352.21 1440.67 1369.29 1453.67 1386.48C1466.01 1402.83 1477.22 1420.05 1488.79 1436.98C1495.22 1446.38 1502.13 1455.57 1507.48 1465.57C1516.28 1482.02 1512.86 1497.96 1501.31 1511.57C1484.02 1531.98 1465.87 1551.66 1448.02 1571.57C1444.45 1575.57 1440.09 1578.93 1437.02 1583.23C1428.16 1595.49 1417.71 1601.72 1402.02 1596.35C1397.81 1594.91 1392.02 1596.02 1387.6 1597.66C1368.67 1604.66 1352.46 1616.03 1342.14 1633.4C1338.63 1639.3 1338.64 1648.84 1340.27 1655.97C1345.97 1680.85 1349.98 1684.89 1376.01 1684.68C1410.51 1684.41 1445.01 1682.13 1479.45 1679.79C1488.12 1679.2 1568.32 1580.29 1571.91 1577.79C1600.18 1558.51 1613.68 1528.41 1628.69 1499.71C1639.69 1478.6 1648.84 1456.46 1658.18 1434.51C1660.13 1429.93 1660.28 1424.02 1659.54 1418.97C1655.88 1394.03 1651.2 1369.24 1647.91 1344.26C1647.11 1338.18 1638.13 1272.26 1645.29 1267.7C1648.52 1265.63 1654.12 1265.32 1657.97 1266.46C1687.54 1275.23 1716.92 1284.66 1746.42 1293.67C1769.53 1300.72 1792.34 1310.17 1816.01 1313.58C1841.41 1317.24 1862.84 1328.87 1881.6 1343.09C1910.6 1365.03 1924.2 1398.65 1935.69 1432.46C1942.43 1452.29 1950.33 1471.81 1955.61 1492.02C1959.2 1505.75 1966.49 1531.71 1966.61 1546.02C1966.76 1568.66 1982.3 1590.73 2006.47 1612.65C2014.84 1620.24 2031.21 1604.87 2042.47 1595.53C2061.79 1579.53 2056.3 1560.53 2057.27 1533.46C2057.43 1529.13 2022.34 1444.46 1999.72 1372.2C1986.61 1330.34 1984.26 1292.69 1978.32 1277.33C1970.32 1256.62 1948.13 1208.65 1944.77 1206.9C1925.55 1196.9 1909.77 1183.75 1897.44 1165.3C1890.2 1154.47 1877.36 1147.55 1868.5 1137.58C1863.09 1131.49 1857.97 1123.2 1857.13 1115.42C1855.69 1102.1 1833.13 1080.81 1832.56 1077.27C1829.56 1059.18 1826.56 1041.03 1824.92 1022.78C1823.92 1011.35 1821.92 973.25 1820.04 965.78C1819.26 962.6 1817.2 958.89 1818.12 956.26C1825.75 934.4 1811.68 917.75 1804.32 899.94C1795.11 877.65 1782.07 856.82 1780.58 831.94C1780.03 822.71 1780.38 813.43 1780.1 804.18C1779.99 800.55 1780.15 796.54 1778.72 793.38C1766.19 765.76 1778.15 742.67 1792.18 720.16C1809.47 692.39 1827.81 665.26 1844.6 637.16C1852.71 623.61 1858.17 608.49 1865.09 594.21C1868 587.89 1871.41 581.814 1875.29 576.04C1889.9 555.26 1899.53 532.45 1906.61 508.04C1910.32 495.24 1919.11 483.95 1923.05 471.19C1931.63 443.4 1938.69 415.13 1946.05 386.97C1947.05 383.13 1985.2 229.21 1877.49 85.57C1873.65 80.45 1864.97 78.42 1858.41 75.14C1856.1 73.98 1852.53 74.02 1851.29 72.27C1830.91 43.42 1736.4 -2.38997 1728.67 4.27003C1726.78 5.89003 1721.92 6.10003 1719.57 4.84003C1690.83 -10.58 1610.15 12.03 1577.3 44.84C1552.89 69.21 1556.3 78.84 1549.01 103.84C1544.19 120.29 1542.01 145.53 1551.12 153.79C1564.12 165.55 1587.69 165.43 1605.04 152.87C1611.68 148.06 1617.04 141.52 1623.54 136.5C1646.73 118.59 1673.16 107.12 1701.54 117.92C1720.96 125.31 1739.32 138.38 1754.83 152.55C1785.33 180.43 1803.48 215.76 1805.43 257.86C1806.3 276.77 1807.94 296.15 1804.98 314.64C1798.31 356.43 1791.98 398.7 1779.9 439.07C1768.48 477.13 1751.69 513.98 1733.48 549.43C1724.66 566.6 1707.65 579.78 1693.48 593.88C1684.17 603.13 1672.58 610.08 1663.22 619.29C1634.87 647.19 1600.36 651.16 1564.31 643.22C1460.42 620.33 1355.92 619.47 1250.78 631.03C1198.78 636.75 1146.52 640.39 1094.7 647.37C1018.76 657.61 800.43 690.37 766.98 694.86C765.738 694.906 764.515 695.177 763.37 695.66C729.11 714.95 692.5 711.51 656.95 703.25C625.02 695.84 591.15 693.06 563.03 672.87C536.12 653.54 507.65 636.23 481.88 615.53C461.43 599.1 440.88 584.77 415.88 575.53C377.45 561.26 345.02 537.6 319.2 505.18C307.93 491.03 295.58 477.72 283.36 464.36C278.56 459.11 272.78 454.76 267.45 450L254.94 466.77C244.39 464.87 239.3 467.93 238.94 481.16C238.53 496.73 239.81 512.42 241.46 527.94C243.52 547.44 239.71 561.64 218.92 570.13C194.09 580.28 171.45 595 155.19 617.36C150.374 623.988 146.017 630.937 142.15 638.16C129.33 662.04 117.46 686.29 95.77 704.24C87.08 711.43 80.19 721.4 74.43 731.24C71.43 736.33 70.37 744.85 72.51 750.24C78.36 764.89 86.23 778.74 93.61 792.75C95.89 797.07 99.89 800.54 101.86 804.95C115 834.43 145.64 849.69 176.11 843.37C208.53 836.64 236.86 846.03 260.69 868.98C263.05 871.25 265.22 875.51 267.69 875.63C289.25 876.69 309.98 925 313.88 932.45C321.12 946.31 339.88 989.27 339.81 997.23C339.56 1014.42 337.81 1031.59 337.51 1048.79C337.07 1073.01 331.75 1168.37 330.39 1191.91C329.39 1209.36 331.39 1226.98 330.71 1244.47C330.46 1250.96 326.63 1257.37 324.15 1263.71C317.77 1280.02 311.04 1296.2 304.81 1312.57C292.56 1344.76 222.4 1436.79 207.07 1455.08C197.81 1466.08 127.73 1542.35 98.32 1565.35C90.63 1571.35 77 1573.68 67.07 1571.97C54.17 1569.76 43.87 1571.13 33.19 1577.87C27.73 1581.31 20.63 1582.03 15.27 1585.77C-2.51997 1598.11 -7.46996 1626.98 15.22 1645.1Z" fill="black"/>
</svg>
