<svg viewBox="0 0 471 619" fill="none" xmlns="http://www.w3.org/2000/svg">
<path d="M418.9 472.5C418.9 472.5 472.9 413.1 441.6 315.4C441.6 315.4 447.9 242.6 469.1 200.6C469.1 200.6 472.7 176.8 464.2 157.3C452 129.5 431 106.7 426.8 57.7999C422.6 8.89995 411.8 0.899945 407.8 0.599945C403.8 0.299945 389.4 4.39995 378.7 22.3999C378.7 22.3999 350.2 11.0999 308.6 32.9999C308.6 32.9999 278.5 20.2999 244.8 15.2999C244.8 15.2999 281.8 59.1999 282.5 75.6999C283.2 92.1999 287 109.5 291.8 115.8C291.8 115.8 302.8 137.8 292.2 169.8C292.2 169.8 165.6 261.6 214.5 452.7C111 427.6 30.6 458 8.40003 500.6C1.50003 513.9 -1.69997 534.8 4.40003 553.5C16 588.7 56.2 602.3 77.8 609.7C92.9 614.8 119 621.3 122 615.1C125.1 608.7 127.5 594 91.4 584.4C54.9 574.6 13.7 527.4 55.9 505.9C84.6 491.3 117.9 505.2 170.2 510.3C179.5 511.2 235.5 516.6 252 515.7C278.4 514.3 299.8 515.6 313.3 516.8C313.3 516.8 326.7 517.6 337.9 514.4C337.9 514.4 365.1 525.2 387.3 515.6C387.3 515.6 419.5 518.9 434 514.2C434.7 514 436.6 513.3 438.2 511.6C444.2 505.4 442.4 489.9 434.7 484.8C429.8 481.5 424.5 483.8 421 479.4C419.3 477 418.9 474.4 418.9 472.5Z" fill="black" stroke="white" stroke-miterlimit="10"/>
</svg>
