<svg width="478" height="447" viewBox="0 0 478 447" fill="none" xmlns="http://www.w3.org/2000/svg">
<path d="M149.41 336.75C140.066 352.32 137.789 364.49 129.244 380.218C121.296 394.847 118.083 411.246 110.021 426.625C103.349 421.536 98.681 437.079 95 440.999C88.997 447.392 85.885 446.426 75.997 446.465C67.849 446.498 54.742 443.199 62.945 432.413C69.241 424.135 87.997 428.666 90.746 410.8C92.038 402.403 93.925 393.554 95.22 384.999C97.741 368.342 99.456 350.648 101.946 333.999C104.318 318.142 96.331 305.917 89.247 291.75C82.29 277.837 78.317 263.52 75.217 248.999C72.239 235.052 65.625 220.008 58.749 207.248C53.24 197.025 53.998 182.939 37.851 177.152C37.898 177.7 20.413 174.753 18.488 173.867C13.046 171.362 9.72699 168.047 6.89599 162.794C4.49599 158.34 0.473997 147.69 2.447 142.785C5.279 135.746 14.315 135.263 19.117 130.248C23.322 125.857 23.964 121.154 29.547 117.026C35.341 112.741 54.707 100.89 61.998 107L53.998 104C58.05 101.511 53.198 92.858 54.224 87.076C57.189 91.253 62.919 102.619 67.998 100L78.998 83C82.666 91.267 86.069 102.993 90.97 111.028C95.843 119.018 104.598 123.505 110.97 130.218C125.651 145.69 129.87 165.26 152.996 170.999C153.339 183.666 223.895 179.61 235.996 178.999C269.583 177.303 303.125 177.999 336.996 177.999C353.468 177.999 370.569 178.389 386.996 176.776C405.453 174.964 413.84 172.065 420.245 154.002C425.196 140.042 426.898 123.238 428.992 108.995C430.919 95.891 433.927 73.315 430.77 60.224C428.44 50.563 423.997 28.105 414.243 26.727C378.996 21.749 383.496 -0.251029 396.996 1.99897V2.99897C396.586 2.42697 400.032 2.80698 395.877 1.97898C410.546 5.09298 422.494 5.33298 434.745 15.25C446.544 24.8 451.933 38.751 454.219 52.999C459.406 85.339 458.794 116.9 449.215 147.218C442.478 168.539 431.184 192.651 430.996 214.999L431.996 204.999C432.053 221.123 442.255 226.939 445.992 241.003C449.83 255.439 447.368 268.441 445.773 283.776C444.271 298.224 448.808 310.428 454.214 323.78C458.496 334.353 463.656 347.454 470.996 355.999C482.658 365.287 470.557 415.245 466.773 426.999C462.104 441.505 457.679 441.453 442.996 442.222C437.186 442.526 430.839 444.826 427.973 439.023C424.682 432.358 430.696 426.222 435.996 424L436.996 422C440.141 417.273 442.119 412.487 443.777 407.004C445.647 400.817 448.414 389.862 444.293 383.73C441.194 379.119 429.613 374.917 424.75 372.223C411.932 365.124 400.739 358.376 389.745 348.247C366.757 327.069 355.076 301.368 319.773 306.777C304.666 309.091 289.803 312.425 273.996 314C258.159 315.577 242.467 313.556 226.219 312.777C209.415 311.972 195.067 311.964 178.774 314.777C161.5 317.758 153.443 326.461 145.996 341.999" fill="black"/>
<path d="M201.05 347C201.234 343.096 201.397 339.189 201.531 335.283L201.685 329.422L201.749 323.56L201.678 317.699L201.452 311.844C201.331 309.895 201.179 307.948 201.043 306C200.846 304.058 200.615 302.12 200.403 300.181L200.586 300.371L199.357 300.219L198.121 300.163C197.709 300.165 197.297 300.19 196.885 300.203C196.474 300.234 196.065 300.291 195.656 300.333L194.439 300.549L193.237 300.843C192.443 301.071 191.661 301.337 190.89 301.636C187.809 302.858 184.966 304.616 182.122 306.372C179.276 308.128 176.414 309.939 173.247 311.247C172.456 311.572 171.645 311.858 170.819 312.102C169.991 312.342 169.144 312.527 168.285 312.664C167.854 312.723 167.42 312.759 166.987 312.808L165.678 312.848L164.367 312.779L163.065 312.604L162.668 312.55L162.5 312.043L162.214 311.181L161.781 310.283L161.302 309.32C161.156 308.965 161.02 308.588 160.885 308.219L161.664 308.791C160.376 308.877 159.141 309.244 158.189 310.001C157.228 310.742 156.545 311.82 156.108 313.025C155.235 315.46 155.2 318.241 155.373 320.946C155.805 326.402 157.167 331.816 158.753 337.126C160.371 342.438 162.245 347.682 164.273 352.868C166.301 358.056 168.516 363.173 170.791 368.263C173.074 373.349 175.475 378.384 177.985 383.362C180.511 388.327 183.083 393.28 185.885 398.06C186.586 399.253 187.302 400.435 188.048 401.578C188.422 402.147 188.801 402.711 189.191 403.238C189.386 403.505 189.582 403.757 189.776 403.988C189.784 404 189.861 404.089 189.813 404.037L189.903 404.133L190.083 404.324L190.442 404.707C191.412 405.781 192.333 406.603 193.359 407.52C194.389 408.418 195.456 409.313 196.53 410.218C198.675 412.03 200.891 413.93 202.714 416.295L202.803 416.401L202.92 416.562L203.069 416.778L203.368 417.209C203.567 417.509 203.768 417.759 203.964 418.099C204.346 418.802 204.772 419.49 205.021 420.244C205.61 421.706 205.834 423.425 205.61 424.989C205.403 426.557 204.932 427.924 204.632 429.202C204.328 430.48 204.181 431.704 204.34 432.936C204.456 433.546 204.522 434.168 204.754 434.77L205.027 435.607L205.478 436.555C205.622 436.909 205.799 437.082 205.956 437.333C206.116 437.568 206.257 437.814 206.486 438.03C206.699 438.248 206.885 438.494 207.115 438.694L207.829 439.271C209.848 440.68 212.531 441.159 215.108 440.8C216.402 440.649 217.681 440.289 218.875 439.757C220.077 439.219 221.192 438.582 222.184 437.661C223.143 436.79 223.958 435.797 224.647 434.651C225.305 433.505 225.816 432.266 226.198 430.98C226.934 428.395 227.134 425.641 226.93 422.921C226.838 421.571 226.611 420.175 226.317 418.899C225.939 417.553 225.613 416.171 225.061 414.947C224.616 413.669 223.946 412.45 223.336 411.214C223.019 410.602 222.638 410.021 222.292 409.421C221.941 408.824 221.589 408.228 221.186 407.66C218.119 403.023 214.431 398.795 210.948 394.406C207.448 390.046 204.114 385.441 201.948 380.239C199.872 374.997 199.237 369.311 199.55 363.724C199.84 358.129 200.78 352.595 201.05 347ZM201.05 347C200.808 352.596 199.897 358.14 199.635 363.729L199.551 365.825C199.554 366.524 199.59 367.222 199.608 367.921C199.649 368.618 199.61 369.321 199.717 370.013L199.977 372.09C200.382 374.855 201.137 377.567 202.179 380.144C204.414 385.27 207.762 389.807 211.352 394.078C214.933 398.367 218.73 402.505 221.964 407.136C222.386 407.701 222.761 408.3 223.134 408.901C223.503 409.505 223.905 410.088 224.247 410.709C224.907 411.966 225.621 413.188 226.135 414.547C226.759 415.872 227.105 417.216 227.519 418.554C227.89 419.993 228.141 421.366 228.28 422.805C228.563 425.656 228.434 428.574 227.706 431.399C227.327 432.806 226.801 434.183 226.095 435.484C225.378 436.76 224.435 437.978 223.342 439.007C222.302 440.022 220.981 440.845 219.649 441.472C218.303 442.11 216.866 442.554 215.386 442.767C212.455 443.243 209.23 442.823 206.582 441.078L205.644 440.358C205.343 440.106 205.086 439.802 204.807 439.524C204.522 439.258 204.287 438.911 204.05 438.571C203.824 438.236 203.542 437.871 203.417 437.573L202.942 436.636L202.913 436.578C202.833 436.405 202.877 436.491 202.853 436.435L202.805 436.301L202.709 436.032L202.518 435.494C202.234 434.791 202.11 434.01 201.958 433.253C201.715 431.705 201.874 430.1 202.185 428.655C202.49 427.204 202.919 425.899 203.048 424.682C203.194 423.468 203.022 422.328 202.558 421.202C202.364 420.62 202.025 420.125 201.748 419.596C201.595 419.329 201.355 419.032 201.163 418.75L200.858 418.323L200.705 418.11L200.667 418.056C200.619 417.991 200.69 418.085 200.667 418.059L200.585 417.966C198.953 415.905 196.87 414.152 194.719 412.393C193.641 411.508 192.543 410.628 191.462 409.688C190.394 408.751 189.233 407.695 188.325 406.692L187.964 406.311L187.783 406.121L187.693 406.025L187.563 405.872C187.305 405.569 187.072 405.269 186.852 404.973C186.408 404.376 186.002 403.781 185.605 403.182C184.814 401.984 184.075 400.776 183.351 399.559C180.475 394.691 177.827 389.732 175.325 384.696C172.819 379.664 170.426 374.579 168.151 369.44C165.872 364.302 163.759 359.09 161.774 353.827C159.796 348.56 157.979 343.224 156.489 337.779C155.011 332.337 153.749 326.792 153.435 321.061C153.332 318.207 153.402 315.25 154.488 312.408C155.034 311.007 155.923 309.637 157.214 308.696C158.496 307.735 160.085 307.33 161.581 307.269L162.139 307.248L162.361 307.842C162.467 308.129 162.56 308.413 162.669 308.707L163.102 309.631L163.553 310.633L163.895 311.77L163.33 311.209L164.513 311.398L165.709 311.49L166.91 311.483L168.111 311.379C168.909 311.272 169.704 311.12 170.489 310.913C171.274 310.702 172.051 310.45 172.816 310.157C175.882 308.981 178.756 307.267 181.645 305.581C184.534 303.895 187.461 302.179 190.649 301.004C191.447 300.717 192.257 300.463 193.079 300.249L194.324 299.977L195.585 299.786C196.009 299.753 196.432 299.706 196.856 299.683C197.281 299.681 197.707 299.665 198.131 299.674L199.402 299.759L200.663 299.935L200.83 299.957L200.846 300.125C201.03 302.075 201.232 304.022 201.401 305.972C201.507 307.926 201.631 309.879 201.724 311.832L201.864 317.697L201.869 323.562L201.775 329.425L201.591 335.286C201.436 339.191 201.254 343.097 201.05 347Z" fill="black"/>
<path d="M201.05 347C201.783 332.254 202.484 314.725 200.625 300.151C186.566 297.73 176.723 314.462 163.198 311.904C162.932 310.56 161.944 309.279 161.623 308.028C137.36 309.324 180.846 395.945 188.751 405.026C192.731 409.597 198.145 412.598 201.751 417.247C208.099 425.432 200.622 427.854 203.95 436.048C206.978 443.504 216.627 443.164 221.995 438.996C227.632 434.62 228.656 426.214 226.998 419C223.426 403.452 205.551 392.842 200.943 377.055C197.913 366.673 200.49 358.269 201.05 347Z" fill="black"/>
<path d="M363.25 342.25C370.891 322.22 361.35 293.448 339.004 288.229C326.077 285.211 306.141 287.072 299.318 300.319C292.208 314.123 301.547 337.847 305.03 351.978C308.425 365.749 318.52 379.922 310.753 393.975C306.265 402.095 291.972 417.164 283.027 419.049C276.22 420.484 270.834 414.257 264.753 422.733C259.332 430.288 263.264 435.527 271.004 438.004C293.174 445.097 317.348 424.387 331.952 410.805C339.138 404.122 348.521 395.466 353 387C356.737 379.937 354.104 379.435 353.008 373C352.095 367.651 350.123 358.462 356.833 356.856C357.6 350.663 361.196 347.634 363.25 342.25Z" fill="black"/>
<path d="M79 83C79 83 78.743 83.345 78.257 83.898C78.02 84.181 77.838 84.573 77.574 84.941C77.336 85.341 77.103 85.854 76.824 86.355C76.593 86.913 76.312 87.466 76.064 88.112C75.796 88.735 75.531 89.409 75.248 90.108C74.681 91.506 74.067 93.017 73.343 94.522C72.986 95.268 72.586 96.017 72.18 96.737C71.749 97.456 71.326 98.16 70.841 98.808C70.364 99.46 69.885 100.074 69.356 100.61C69.092 100.876 68.866 101.153 68.593 101.382C68.32 101.607 68.057 101.824 67.804 102.033C67.328 102.471 66.783 102.759 66.333 103.03C66.104 103.161 65.903 103.297 65.697 103.393C65.483 103.476 65.287 103.553 65.109 103.622C64.402 103.89 64 104 64 104C64 104 64.28 103.656 64.768 103.13C64.889 103.001 65.022 102.857 65.168 102.701C65.298 102.532 65.44 102.348 65.591 102.152C65.885 101.757 66.237 101.355 66.552 100.847C66.882 100.357 67.232 99.835 67.556 99.242C67.913 98.68 68.235 98.044 68.581 97.399C68.935 96.76 69.247 96.054 69.609 95.369C69.949 94.659 70.295 93.937 70.641 93.216C71.347 91.772 72.074 90.292 72.867 88.936C73.26 88.255 73.671 87.608 74.102 87.008C74.499 86.4 75.001 85.871 75.412 85.381C75.873 84.905 76.301 84.498 76.737 84.165C77.193 83.843 77.581 83.567 77.913 83.415C78.592 83.133 79 83 79 83Z" fill="black"/>
<path d="M363.25 342.25C366.322 334.016 366.501 324.873 364.458 316.385C362.404 307.912 357.928 299.845 351.082 294.391C347.699 291.646 343.694 289.692 339.48 288.674C335.233 287.649 330.878 287.332 326.53 287.449C322.195 287.6 317.85 288.233 313.774 289.656C309.711 291.06 305.883 293.236 302.983 296.339L301.994 297.578C301.671 297.995 301.31 298.386 301.069 298.858L300.262 300.217L300.061 300.557L300.01 300.642C299.989 300.674 300.003 300.654 299.978 300.706L299.892 300.894L299.551 301.641C298.717 303.553 298.193 305.634 297.912 307.744C297.349 311.976 297.638 316.318 298.262 320.591C299.56 329.164 302.193 337.503 304.682 345.915C305.311 348.002 305.894 350.19 306.446 352.26C307.025 354.414 307.672 356.36 308.424 358.424C309.896 362.505 311.594 366.569 312.932 370.834C314.251 375.081 315.31 379.596 315.005 384.255L314.867 385.992C314.815 386.57 314.662 387.138 314.562 387.713C314.431 388.28 314.376 388.867 314.18 389.419L313.635 391.083L313.357 391.913L312.986 392.703L312.239 394.281L312.051 394.676L311.821 395.07L311.402 395.777C311.138 396.244 310.812 396.727 310.49 397.209C307.955 401.015 305.057 404.353 301.959 407.571C298.857 410.768 295.51 413.739 291.813 416.341C289.934 417.605 288.011 418.838 285.786 419.689C285.262 419.942 284.652 420.08 284.072 420.254L283.633 420.378L283.413 420.441C283.339 420.457 283.426 420.449 283.218 420.484L283.116 420.499L282.303 420.616C282.055 420.665 281.72 420.678 281.389 420.687C281.066 420.696 280.727 420.716 280.416 420.707C279.818 420.665 279.206 420.647 278.635 420.553C276.311 420.241 274.225 419.592 272.325 419.584C271.374 419.555 270.516 419.772 269.685 420.092C269.294 420.321 268.869 420.467 268.508 420.783L267.942 421.198C267.76 421.353 267.593 421.537 267.418 421.704C264.714 424.443 262.36 428.727 264.211 431.912C265.064 433.512 266.697 434.767 268.506 435.692C268.947 435.944 269.442 436.119 269.906 436.338C270.367 436.526 270.922 436.711 271.328 436.87C272.376 437.169 273.449 437.52 274.439 437.695C276.46 438.133 278.6 438.37 280.712 438.348C282.83 438.338 284.962 438.17 287.062 437.766C291.271 437.007 295.371 435.578 299.295 433.767C307.155 430.121 314.345 425.063 321.124 419.578C324.515 416.825 327.806 413.944 331.046 411.001C334.288 408.055 337.518 405.1 340.637 402.034C343.744 398.961 346.727 395.75 349.35 392.26C349.973 391.366 350.673 390.52 351.233 389.585C351.792 388.651 352.373 387.722 352.915 386.783C353.907 384.855 354.883 382.82 354.782 380.645C354.739 379.568 354.39 378.525 354.062 377.483C353.729 376.439 353.404 375.386 353.174 374.31C352.753 372.151 352.4 369.993 352.146 367.811C351.906 365.637 351.843 363.402 352.386 361.259C352.699 360.203 353.199 359.195 353.96 358.389C354.733 357.58 355.774 357.131 356.826 356.825L356.801 356.853L357.177 354.877C357.228 354.545 357.368 354.235 357.46 353.914L357.769 352.957C357.855 352.632 358.025 352.339 358.151 352.029L358.559 351.11C358.69 350.802 358.868 350.517 359.02 350.219L359.496 349.334L361.517 345.865C361.827 345.272 362.148 344.684 362.449 344.088L363.25 342.25ZM363.25 342.25L362.454 344.093C362.155 344.692 361.837 345.281 361.529 345.874L359.523 349.352L359.052 350.238C358.901 350.536 358.724 350.821 358.594 351.13L358.192 352.048C358.068 352.359 357.899 352.652 357.814 352.976L357.51 353.931C357.42 354.252 357.281 354.561 357.233 354.892L356.866 356.862L356.862 356.884L356.841 356.89C355.801 357.2 354.776 357.648 354.017 358.447C353.272 359.243 352.782 360.24 352.477 361.286C351.948 363.41 352.018 365.633 352.266 367.799C352.52 369.969 352.92 372.133 353.359 374.27C353.6 375.335 353.934 376.374 354.28 377.414C354.62 378.45 354.991 379.509 355.051 380.632C355.184 382.897 354.192 385.007 353.227 386.943C352.687 387.908 352.117 388.845 351.562 389.798C351.007 390.749 350.315 391.608 349.698 392.518C347.089 396.057 344.182 399.37 341.117 402.513C338.048 405.656 334.871 408.684 331.688 411.698C328.502 414.714 325.255 417.676 321.899 420.517C315.184 426.178 308.03 431.448 300.045 435.355C296.057 437.294 291.846 438.868 287.441 439.756C285.246 440.225 282.992 440.453 280.733 440.509C278.464 440.573 276.215 440.38 273.946 439.937C272.773 439.741 271.756 439.423 270.69 439.144C270.066 438.931 269.578 438.776 269.021 438.564C268.489 438.33 267.943 438.144 267.423 437.867C265.35 436.842 263.248 435.422 261.973 433.137C261.372 432.007 260.951 430.708 260.963 429.408C260.952 428.12 261.189 426.848 261.64 425.719C261.75 425.434 261.852 425.146 261.974 424.865L262.399 424.038C262.683 423.451 262.984 423.013 263.28 422.555L263.503 422.209L263.614 422.036C263.72 421.879 263.722 421.892 263.781 421.812L264.328 421.115L264.878 420.42L265.52 419.773C265.739 419.56 265.943 419.338 266.174 419.134L266.922 418.564C267.396 418.158 268.005 417.894 268.565 417.584C269.757 417.081 271.069 416.777 272.318 416.798C274.82 416.806 276.981 417.486 279.001 417.71C282.861 418.441 286.689 416.333 290.146 413.943C293.607 411.487 296.838 408.605 299.822 405.501C302.776 402.393 305.665 399.097 308.002 395.61C309.217 393.846 310.176 392.009 310.877 390.096L311.362 388.639C311.541 388.159 311.582 387.64 311.701 387.143C311.789 386.639 311.932 386.144 311.978 385.632L312.104 384.093C312.408 379.968 311.445 375.775 310.239 371.671C309.005 367.555 307.37 363.499 305.919 359.318C305.192 357.258 304.489 355.03 303.959 352.945C303.408 350.773 302.883 348.722 302.3 346.597C299.993 338.169 297.491 329.672 296.339 320.862C295.789 316.465 295.571 311.965 296.256 307.506C296.6 305.281 297.194 303.08 298.157 300.992L298.512 300.252L298.601 300.066C298.606 300.058 298.644 299.973 298.662 299.949L298.719 299.858L298.944 299.495L299.843 298.046C300.116 297.544 300.509 297.128 300.865 296.688L301.956 295.382C305.13 292.122 309.196 289.942 313.419 288.576C317.658 287.194 322.103 286.644 326.515 286.579C330.916 286.546 335.378 286.969 339.634 288.09C341.782 288.625 343.844 289.469 345.809 290.47C347.779 291.465 349.636 292.684 351.332 294.091C354.761 296.871 357.562 300.356 359.772 304.149C361.953 307.965 363.552 312.098 364.568 316.366C366.576 324.875 366.357 334.028 363.25 342.25Z" fill="black"/>
<path d="M296 308C296 308 296.107 308.016 296.297 308.043C296.468 308.07 296.673 308.109 296.865 308.156C297.248 308.25 297.498 308.375 297.5 308.5C297.501 308.625 297.254 308.75 296.869 308.844C296.677 308.891 296.47 308.93 296.299 308.957C296.108 308.984 296 309 296 309C296 309 295.892 308.984 295.701 308.957C295.53 308.93 295.323 308.891 295.131 308.844C294.746 308.75 294.499 308.625 294.5 308.5C294.502 308.375 294.752 308.25 295.135 308.156C295.327 308.109 295.532 308.07 295.703 308.043C295.893 308.016 296 308 296 308Z" fill="black"/>
<path d="M149.41 336.75L147.876 339.409L146.412 342.107C145.464 343.92 144.558 345.755 143.693 347.61C142.834 349.467 142.014 351.342 141.218 353.227C140.432 355.117 139.66 357.012 138.902 358.913C137.383 362.714 135.875 366.521 134.221 370.269C133.399 372.144 132.543 374.006 131.631 375.84C130.752 377.689 129.75 379.484 128.826 381.305C127.87 383.118 126.994 384.959 126.164 386.826C125.328 388.691 124.549 390.583 123.801 392.485C122.304 396.292 120.942 400.15 119.573 404.008C118.205 407.865 116.828 411.725 115.314 415.533C114.557 417.438 113.759 419.327 112.926 421.201L111.63 423.991L110.254 426.745L110.115 427.023L109.863 426.831C109.152 426.291 108.321 425.897 107.454 425.884C106.588 425.853 105.745 426.215 105.017 426.726C103.557 427.785 102.461 429.322 101.458 430.863C100.46 432.422 99.576 434.06 98.686 435.699C97.786 437.334 96.933 439 95.799 440.544C95.519 440.927 95.167 441.3 94.845 441.621C94.513 441.952 94.209 442.297 93.848 442.613C93.155 443.265 92.438 443.888 91.652 444.429C90.887 445 90.022 445.437 89.144 445.822C88.246 446.159 87.318 446.441 86.373 446.57C84.485 446.877 82.598 446.862 80.731 446.864L75.131 446.843C73.235 446.799 71.358 446.608 69.499 446.239C67.646 445.864 65.804 445.33 64.096 444.429C62.42 443.55 60.759 442.189 60.153 440.204C59.549 438.222 60.161 436.155 61.06 434.487C61.51 433.62 62.035 432.858 62.632 432.058C63.184 431.346 63.948 430.608 64.706 430.034C66.273 428.887 68.03 428.088 69.8 427.44C73.343 426.138 76.983 425.283 80.321 423.752C81.982 422.987 83.564 422.064 84.935 420.894C86.297 419.716 87.433 418.295 88.27 416.705C90.014 413.53 90.251 409.763 90.921 406.084C92.165 398.716 93.603 391.383 94.686 384.031L96.202 372.94L97.573 361.839C98.493 354.437 99.335 347.018 100.393 339.619L101.151 334.066C101.418 332.225 101.569 330.439 101.579 328.6C101.606 324.944 101.068 321.295 100.101 317.755C98.163 310.652 94.647 304.055 91.22 297.442L88.657 292.455L86.241 287.384C85.468 285.679 84.763 283.923 84.021 282.194C83.307 280.454 82.684 278.686 82.011 276.933C79.462 269.872 77.437 262.641 75.717 255.356C74.85 251.715 74.13 248.026 73.179 244.478C72.226 240.909 71.089 237.374 69.824 233.891C67.287 226.92 64.251 220.127 60.905 213.494C60.07 211.835 59.211 210.187 58.333 208.55C57.438 206.918 56.585 205.142 55.919 203.373C54.55 199.83 53.542 196.235 52.176 192.838C50.827 189.443 49.061 186.246 46.553 183.708C44.068 181.152 40.894 179.342 37.498 178.125L38.88 177.065C38.988 177.408 38.52 178.031 38.467 177.994C38.368 178.069 38.253 178.13 38.138 178.171C38.044 178.201 37.972 178.216 37.894 178.23C37.808 178.241 37.711 178.25 37.657 178.251C37.524 178.257 37.426 178.254 37.324 178.251L36.762 178.218L35.709 178.113L33.655 177.847C32.294 177.655 30.942 177.444 29.59 177.223C26.887 176.777 24.197 176.301 21.5 175.74C20.825 175.597 20.151 175.45 19.465 175.278C19.119 175.19 18.781 175.103 18.397 174.973C17.908 174.799 17.674 174.647 17.352 174.504C16.087 173.888 14.837 173.173 13.673 172.357C11.324 170.729 9.30397 168.609 7.72097 166.263C6.12797 163.928 4.88597 161.384 3.85697 158.808C2.82497 156.227 1.95698 153.581 1.36698 150.827C1.07798 149.449 0.861977 148.042 0.809977 146.586C0.766977 145.145 0.864975 143.587 1.52098 142.091C2.09698 140.73 3.00699 139.426 4.06999 138.401C5.13199 137.35 6.34298 136.522 7.56698 135.802C10.023 134.37 12.568 133.352 14.834 132.041C15.964 131.388 17.021 130.662 17.917 129.808L18.246 129.482L18.565 129.132C18.792 128.88 19.033 128.623 19.215 128.383C19.608 127.91 20 127.383 20.371 126.846C21.857 124.706 23.078 122.201 24.873 119.936C25.761 118.806 26.777 117.758 27.884 116.831C29.015 115.901 30.141 115.135 31.295 114.358C35.907 111.314 40.732 108.609 45.904 106.521C48.495 105.497 51.182 104.626 54.043 104.229C55.472 104.038 56.954 103.976 58.465 104.202C59.965 104.427 61.525 104.999 62.785 106.051L68.318 110.672L61.561 108.15L53.557 105.162L51.295 104.318L53.342 102.935C53.724 102.677 53.991 102.372 54.157 101.885C54.325 101.406 54.392 100.799 54.384 100.154C54.361 98.854 54.096 97.444 53.821 96.023C53.543 94.597 53.23 93.142 53.021 91.626C52.821 90.112 52.688 88.524 52.973 86.852L53.492 83.811L55.255 86.339C56.268 87.791 57.126 89.22 58.037 90.626C58.939 92.029 59.86 93.403 60.847 94.697C61.836 95.977 62.9 97.207 64.076 98.102C64.66 98.544 65.275 98.882 65.846 99.03C66.419 99.165 66.906 99.104 67.41 98.861L66.923 99.302L77.915 82.297L79.212 80.29L80.173 82.474C82.191 87.063 83.825 91.725 85.603 96.304C87.379 100.874 89.226 105.417 91.629 109.572L92.059 110.312L92.567 111.084C92.902 111.621 93.249 112.085 93.595 112.533C94.278 113.449 95.078 114.36 95.892 115.219C97.535 116.948 99.357 118.538 101.241 120.089C103.127 121.64 105.076 123.157 106.991 124.761C108.903 126.358 110.789 128.07 112.502 129.937C114.19 131.755 115.824 133.724 117.333 135.693C118.854 137.675 120.295 139.707 121.699 141.748C124.509 145.83 127.173 149.962 130.148 153.797C133.114 157.629 136.44 161.147 140.347 163.878C144.237 166.627 148.674 168.529 153.32 169.691L154.326 169.942L154.342 170.961C154.353 171.668 154.793 172.368 155.58 173C156.348 173.628 157.348 174.135 158.385 174.563C160.483 175.413 162.781 175.977 165.094 176.432C169.74 177.328 174.517 177.793 179.295 178.125C188.866 178.758 198.502 178.802 208.128 178.651C217.766 178.496 227.368 178.063 237.032 177.561C246.664 177.119 256.348 176.788 266.014 176.647C270.846 176.561 275.678 176.498 280.509 176.483L294.999 176.444L323.964 176.534L352.92 176.585C362.559 176.567 372.189 176.479 381.755 175.743C386.531 175.359 391.338 174.95 395.985 174.122C400.616 173.286 405.157 171.963 408.772 169.264C412.414 166.602 414.966 162.639 416.891 158.383C417.377 157.318 417.82 156.226 418.247 155.127L418.85 153.483L419.426 151.767C419.832 150.616 420.127 149.503 420.483 148.371C420.796 147.225 421.126 146.08 421.413 144.923C423.757 135.669 425.082 126.135 426.414 116.583L428.443 102.251C429.085 97.485 429.643 92.712 430.049 87.935C430.451 83.159 430.706 78.373 430.662 73.612C430.6 68.842 430.288 64.139 429.108 59.577C428.01 54.865 426.93 50.202 425.533 45.646C424.126 41.123 422.49 36.596 419.974 32.797C418.717 30.935 417.163 29.262 415.35 28.522C414.885 28.334 414.471 28.223 413.936 28.145L412.14 27.867C410.912 27.659 409.705 27.44 408.501 27.172C403.694 26.119 398.903 24.591 394.545 21.989C392.378 20.683 390.324 19.085 388.642 17.053C386.987 15.029 385.685 12.476 385.588 9.61904C385.545 8.20504 385.821 6.74803 386.454 5.44103C387.081 4.13203 388.059 2.99004 389.239 2.16704C391.617 0.48804 394.602 0.13203 397.228 0.58803L398.423 0.79503V1.99903L398.422 2.99903L398.42 7.75203L395.832 3.83103C395.722 3.66403 395.511 3.36303 395.533 2.80603C395.573 2.23103 395.919 1.85603 396.094 1.71803C396.474 1.42903 396.626 1.42102 396.774 1.36102C397.045 1.27902 397.212 1.25704 397.35 1.22904L397.467 1.20703C397.447 1.21903 397.464 1.19003 397.234 1.30303L397.112 1.37804C397.04 1.43204 397.04 1.42604 396.919 1.54204C396.773 1.67204 396.451 2.13303 396.53 2.69603C396.61 3.20303 396.83 3.39704 396.908 3.49004C397.038 3.61704 397.049 3.61604 397.124 3.67104C397.282 3.76904 397.278 3.75304 397.297 3.76404C397.306 3.76704 397.296 3.76403 397.28 3.75903L397.147 3.72003C396.693 3.60103 396.128 3.48804 395.596 3.38004L396.171 0.584032C401.234 1.65903 406.386 2.45904 411.56 3.52004C414.146 4.06404 416.732 4.69403 419.287 5.48303C421.844 6.27103 424.347 7.28004 426.766 8.46204C431.609 10.852 435.965 14.101 439.752 17.928C443.499 21.803 446.589 26.272 448.955 31.072C451.334 35.867 453.057 40.951 454.264 46.119C454.885 48.702 455.366 51.311 455.755 53.929C456.138 56.513 456.542 59.087 456.848 61.711C457.541 66.933 457.991 72.159 458.361 77.403C458.481 80.028 458.676 82.649 458.711 85.278L458.806 89.219L458.798 93.163C458.819 95.792 458.67 98.42 458.606 101.049C458.424 103.673 458.346 106.304 458.07 108.921C457.672 114.169 456.907 119.382 456.079 124.578C455.564 127.16 455.163 129.763 454.546 132.324L453.681 136.177L452.687 139.999L452.189 141.91L451.626 143.803L450.5 147.588C449.711 150.083 448.868 152.587 448.013 155.057C444.58 164.958 440.834 174.701 437.808 184.64C436.298 189.608 434.953 194.619 433.972 199.69C432.99 204.756 432.351 209.885 432.298 215.011L429.7 214.87L430.705 204.871L433.293 204.995C433.31 208.215 433.753 211.408 434.723 214.457C435.678 217.514 437.142 220.408 438.799 223.251C440.451 226.099 442.262 228.937 443.819 231.972C445.381 234.998 446.664 238.232 447.447 241.587C447.853 243.177 448.189 244.891 448.47 246.577C448.587 247.42 448.725 248.26 448.824 249.104L449.077 251.64C449.35 255.027 449.35 258.42 449.197 261.788C448.881 268.529 447.962 275.159 447.237 281.765C447.152 282.578 447.045 283.445 446.978 284.213L446.786 286.7L446.712 289.112L446.754 291.555C446.883 294.812 447.312 298.058 447.978 301.263C449.31 307.683 451.573 313.913 454.007 320.087L457.736 329.346C458.997 332.419 460.299 335.469 461.695 338.467C464.497 344.441 467.65 350.299 471.842 355.271L471.691 355.125C473.01 356.195 473.936 357.579 474.607 358.999C475.284 360.424 475.719 361.904 476.058 363.385C476.717 366.353 476.943 369.34 477.013 372.307C477.13 378.245 476.587 384.125 475.829 389.954C475.056 395.784 474.017 401.565 472.811 407.308C471.594 413.049 470.231 418.753 468.609 424.41C467.793 427.232 466.884 430.059 465.645 432.809C465.018 434.177 464.307 435.532 463.393 436.792C462.48 438.047 461.355 439.211 460.012 440.079C457.299 441.845 454.16 442.333 451.236 442.65C448.281 442.948 445.34 443.044 442.448 443.213C439.63 443.392 436.715 444.073 433.556 443.794C431.993 443.652 430.304 443.108 429.029 441.967C428.391 441.41 427.871 440.744 427.463 440.041C427.052 439.325 426.762 438.645 426.509 437.831C426.028 436.288 425.986 434.59 426.362 433.023C426.732 431.449 427.476 430.012 428.402 428.759C430.288 426.265 432.805 424.38 435.646 423.161L435.187 423.591L436.19 421.593L436.216 421.54L436.245 421.496C440.555 415.078 443.016 407.517 444.702 399.947C445.457 396.163 445.924 392.249 445.265 388.545C444.926 386.715 444.265 384.933 443.115 383.57C441.958 382.23 440.325 381.119 438.698 380.12C435.387 378.125 431.801 376.521 428.232 374.846C427.338 374.426 426.444 374.001 425.551 373.55C424.648 373.101 423.778 372.591 422.929 372.117C421.213 371.15 419.493 370.196 417.789 369.191C410.955 365.234 404.257 360.994 397.979 356.156C391.672 351.348 385.942 345.827 380.547 340.077C375.127 334.339 369.995 328.359 364.383 322.889C358.783 317.449 352.549 312.51 345.289 309.645C338.075 306.677 330.073 306.08 322.333 306.957C314.565 307.981 306.809 309.455 299.05 310.778C291.287 312.12 283.497 313.377 275.649 314.192C267.801 315.079 259.866 315.045 252 314.667C244.124 314.29 236.277 313.59 228.419 313.144C220.559 312.726 212.689 312.423 204.821 312.562C196.955 312.694 189.093 313.303 181.317 314.511C177.421 315.038 173.551 315.846 169.861 317.206C166.173 318.556 162.683 320.472 159.638 322.962C156.594 325.454 154 328.465 151.792 331.719C149.579 334.976 147.709 338.453 145.994 341.996C147.69 338.444 149.542 334.956 151.74 331.683C153.933 328.413 156.516 325.381 159.558 322.863C162.6 320.347 166.098 318.402 169.795 317.026C173.495 315.64 177.378 314.808 181.277 314.259C189.059 313.007 196.933 312.355 204.813 312.18C212.695 311.998 220.577 312.259 228.446 312.635C236.317 313.039 244.167 313.697 252.028 314.031C259.888 314.365 267.758 314.358 275.568 313.433C283.384 312.579 291.147 311.283 298.896 309.901C306.655 308.535 314.375 307.023 322.217 305.946C330.07 305.011 338.28 305.571 345.711 308.581C349.42 310.051 352.935 311.998 356.165 314.317C359.404 316.628 362.409 319.236 365.267 321.974C370.967 327.473 376.138 333.434 381.563 339.116C386.968 344.821 392.663 350.223 398.904 354.957C405.122 359.72 411.774 363.904 418.578 367.816C420.268 368.806 421.995 369.757 423.714 370.718C424.585 371.201 425.416 371.686 426.278 372.11C427.143 372.546 428.029 372.962 428.919 373.377C432.48 375.038 436.107 376.641 439.556 378.702C441.268 379.761 442.967 380.861 444.406 382.502C445.806 384.165 446.546 386.213 446.93 388.233C447.661 392.318 447.158 396.383 446.397 400.293C445.586 404.212 444.47 408.015 443.109 411.769C441.742 415.519 439.955 419.144 437.746 422.496L437.802 422.399L436.805 424.401L436.658 424.696L436.346 424.831C433.823 425.915 431.508 427.668 429.878 429.851C428.245 432.023 427.473 434.782 428.291 437.295C428.468 437.876 428.753 438.55 429.075 439.098C429.402 439.659 429.799 440.155 430.264 440.559C431.19 441.377 432.413 441.794 433.748 441.918C436.445 442.165 439.322 441.522 442.324 441.304C445.265 441.123 448.172 441.019 451.034 440.72C453.874 440.413 456.707 439.909 458.932 438.436C461.171 436.985 462.672 434.559 463.829 431.986C464.986 429.401 465.869 426.643 466.667 423.851C468.252 418.262 469.592 412.582 470.781 406.883C471.961 401.181 472.972 395.443 473.719 389.678C474.451 383.917 474.964 378.115 474.832 372.357C474.756 369.486 474.523 366.614 473.904 363.872C473.282 361.174 472.25 358.439 470.298 356.871L470.211 356.802L470.147 356.726C465.712 351.496 462.483 345.499 459.613 339.44C458.185 336.401 456.86 333.322 455.582 330.234L451.811 320.957C449.343 314.749 447.008 308.403 445.607 301.759C444.907 298.443 444.449 295.06 444.303 291.655L444.252 289.099L444.325 286.515L444.512 284.018C444.586 283.126 444.685 282.339 444.77 281.495C445.482 274.851 446.364 268.256 446.664 261.675C446.81 258.386 446.806 255.1 446.539 251.842L446.294 249.404C446.197 248.593 446.064 247.789 445.951 246.981C445.68 245.381 445.381 243.822 444.961 242.183C444.225 239.043 443.029 236.034 441.535 233.142C440.048 230.244 438.267 227.455 436.57 224.541C434.872 221.635 433.295 218.546 432.256 215.233C431.201 211.926 430.716 208.446 430.697 205.003L433.285 205.127L432.29 215.128L429.692 214.987C429.741 209.659 430.397 204.376 431.398 199.188C432.397 193.997 433.76 188.9 435.284 183.871C438.338 173.81 442.089 164.029 445.49 154.183C446.342 151.716 447.164 149.266 447.948 146.78L449.052 143.052L449.605 141.188L450.093 139.307L451.068 135.543L451.916 131.749C452.522 129.228 452.914 126.662 453.419 124.12C454.23 118.999 454.979 113.863 455.365 108.688C455.636 106.107 455.71 103.511 455.886 100.924C455.947 98.33 456.092 95.738 456.068 93.142L456.072 89.249L455.975 85.356C455.939 82.76 455.742 80.168 455.621 77.575C455.25 72.398 454.799 67.209 454.111 62.072C453.81 59.506 453.402 56.918 453.016 54.335C452.634 51.786 452.165 49.253 451.562 46.756C450.389 41.756 448.725 36.877 446.455 32.313C444.198 27.744 441.267 23.527 437.746 19.89C434.183 16.297 430.052 13.219 425.514 10.99C420.979 8.72604 416.036 7.34504 410.984 6.29804C405.921 5.26504 400.74 4.46503 395.58 3.37503L396.154 0.580034C396.72 0.695034 397.258 0.798031 397.89 0.961031L398.161 1.04003L398.343 1.10503C398.426 1.14203 398.488 1.15303 398.705 1.29003C398.794 1.35503 398.82 1.36304 398.962 1.50304C399.052 1.60804 399.282 1.81803 399.365 2.34203C399.448 2.92203 399.115 3.40004 398.958 3.54204C398.831 3.66604 398.822 3.66304 398.743 3.72304C398.669 3.77404 398.635 3.79104 398.598 3.81104C398.306 3.95604 398.254 3.94604 398.167 3.97504L397.871 4.03703L397.627 4.08704C397.642 4.07004 397.659 4.11003 397.929 3.90903C398.05 3.81503 398.351 3.50103 398.386 2.99703C398.404 2.51103 398.227 2.27703 398.156 2.16603L395.566 2.99903L395.565 1.99903L396.759 3.40903C394.658 3.04703 392.492 3.37103 390.892 4.50803C389.275 5.62003 388.379 7.53804 388.455 9.53304C388.518 11.541 389.478 13.546 390.864 15.232C392.265 16.924 394.067 18.346 396.03 19.524C399.977 21.882 404.511 23.35 409.114 24.349C410.266 24.605 411.435 24.815 412.587 25.011L414.369 25.285C415.028 25.376 415.791 25.57 416.442 25.841C419.135 26.972 420.941 29.084 422.378 31.171C425.203 35.45 426.855 40.13 428.321 44.793C429.76 49.468 430.863 54.218 431.96 58.905C432.241 60.045 432.523 61.321 432.735 62.536C432.931 63.765 433.109 64.995 433.223 66.224C433.473 68.682 433.58 71.136 433.606 73.583C433.656 78.477 433.4 83.343 432.998 88.186C432.591 93.028 432.031 97.848 431.39 102.65L429.373 116.995C428.055 126.557 426.71 136.188 424.302 145.663C424.006 146.848 423.668 148.023 423.342 149.204C422.976 150.374 422.643 151.595 422.245 152.72L421.667 154.435L421.022 156.19C420.574 157.339 420.108 158.485 419.591 159.615C418.552 161.87 417.375 164.096 415.878 166.155C414.4 168.217 412.608 170.117 410.525 171.643C408.456 173.189 406.121 174.333 403.744 175.174C401.362 176.027 398.927 176.576 396.502 177.02C391.64 177.878 386.812 178.279 381.968 178.665C372.278 179.4 362.582 179.479 352.918 179.487L323.95 179.407L294.996 179.286L280.525 179.31C275.701 179.32 270.879 179.378 266.059 179.459C256.419 179.59 246.805 179.909 237.149 180.342C227.531 180.832 217.841 181.259 208.172 181.405C198.496 181.547 188.806 181.494 179.109 180.843C174.261 180.499 169.409 180.027 164.572 179.091C162.155 178.609 159.739 178.027 157.358 177.063C156.172 176.566 154.983 175.989 153.874 175.09C153.323 174.642 152.791 174.099 152.369 173.413C151.945 172.731 151.671 171.882 151.65 171.036L152.672 172.306C147.756 171.076 142.978 169.028 138.807 166.072C134.617 163.137 131.1 159.391 128.043 155.432C124.974 151.466 122.294 147.294 119.515 143.251C118.127 141.228 116.715 139.233 115.236 137.302C113.745 135.357 112.23 133.524 110.565 131.725C107.342 128.186 103.419 125.276 99.575 122.115C97.655 120.531 95.752 118.872 93.998 117.023C93.119 116.091 92.286 115.148 91.495 114.086C91.09 113.556 90.704 113.028 90.387 112.518L89.88 111.745L89.378 110.887C86.845 106.492 84.978 101.856 83.186 97.24C81.4 92.623 79.77 87.968 77.819 83.523L80.077 83.7L69.069 100.694L68.871 100.999L68.582 101.135C68.072 101.374 67.519 101.58 66.932 101.628C66.349 101.706 65.772 101.63 65.234 101.511C64.17 101.233 63.299 100.709 62.542 100.142C61.785 99.569 61.13 98.933 60.522 98.277C59.916 97.62 59.357 96.94 58.827 96.248C57.771 94.862 56.819 93.433 55.901 92.003C54.983 90.58 54.104 89.122 53.189 87.81L55.471 87.298C55.255 88.525 55.344 89.903 55.53 91.288C55.717 92.679 56.015 94.095 56.294 95.548C56.567 97.005 56.86 98.491 56.89 100.129C56.894 100.947 56.828 101.824 56.511 102.732C56.35 103.183 56.118 103.64 55.792 104.043C55.482 104.461 55.067 104.785 54.649 105.062L54.435 102.835L62.43 105.847L61.206 107.945C59.518 106.513 56.883 106.31 54.367 106.653C51.819 106.996 49.272 107.799 46.798 108.771C41.847 110.75 37.099 113.387 32.61 116.333C31.5 117.073 30.37 117.845 29.393 118.646C28.409 119.468 27.515 120.383 26.715 121.393C25.101 123.4 23.901 125.83 22.28 128.17C21.874 128.753 21.453 129.32 20.972 129.893C20.736 130.193 20.509 130.431 20.279 130.685L19.908 131.088L19.51 131.481C18.427 132.506 17.213 133.324 15.983 134.03C13.519 135.438 10.975 136.448 8.71598 137.763C6.45398 139.059 4.53297 140.727 3.57897 143.001C3.12397 144.01 3.00698 145.248 3.04598 146.517C3.08698 147.787 3.27798 149.086 3.54598 150.375C4.08898 152.956 4.91598 155.512 5.90098 157.995C6.88498 160.482 8.04698 162.867 9.52198 165.046C10.983 167.22 12.784 169.115 14.913 170.604C15.98 171.356 17.101 172.002 18.284 172.584C18.582 172.721 18.941 172.916 19.098 172.961C19.359 173.05 19.681 173.137 19.995 173.218C20.631 173.38 21.288 173.526 21.947 173.667C24.586 174.225 27.264 174.707 29.939 175.157C31.277 175.38 32.617 175.593 33.955 175.785L35.955 176.05L36.936 176.151L37.395 176.18L37.573 176.181C37.604 176.181 37.592 176.179 37.591 176.182C37.554 176.187 37.525 176.193 37.471 176.212C37.375 176.243 37.279 176.295 37.2 176.36C37.169 176.316 36.7 176.91 36.82 177.236L38.202 176.176C41.812 177.479 45.288 179.463 48.014 182.283C50.764 185.084 52.654 188.567 54.042 192.094C55.448 195.63 56.448 199.241 57.762 202.664C58.409 204.39 59.169 205.987 60.061 207.631C60.941 209.284 61.803 210.948 62.64 212.624C65.995 219.325 69.04 226.191 71.587 233.257C72.858 236.79 74 240.37 74.961 244.015C75.93 247.68 76.627 251.325 77.478 254.946C79.166 262.189 81.151 269.36 83.65 276.348C84.309 278.08 84.922 279.836 85.619 281.55C86.344 283.251 87.023 284.963 87.785 286.658L90.167 291.701L92.706 296.677C96.107 303.297 99.666 309.992 101.651 317.34C102.639 321 103.191 324.804 103.151 328.614C103.138 330.507 102.965 332.446 102.689 334.297L101.916 339.834C100.844 347.209 99.972 354.619 99.006 362.022L97.573 373.134L95.997 384.217C94.865 391.628 93.389 398.94 92.109 406.281C91.787 408.126 91.508 409.947 91.151 411.811C90.784 413.685 90.191 415.537 89.272 417.241C88.36 418.945 87.118 420.478 85.648 421.731C84.169 422.976 82.489 423.937 80.759 424.72C77.286 426.281 73.607 427.116 70.141 428.368C68.408 428.988 66.731 429.747 65.274 430.798C64.548 431.355 63.948 431.905 63.344 432.661C62.825 433.353 62.28 434.128 61.868 434.917C61.01 436.48 60.498 438.3 60.996 439.948C61.481 441.602 62.917 442.844 64.494 443.68C66.087 444.534 67.864 445.066 69.66 445.44C71.459 445.81 73.307 446.008 75.14 446.063L80.734 446.117C82.593 446.128 84.457 446.15 86.259 445.867C89.936 445.435 92.909 442.886 95.285 440.153C96.372 438.692 97.241 437.029 98.146 435.403C99.045 433.769 99.944 432.125 100.966 430.545C101.999 428.983 103.114 427.412 104.697 426.273C105.486 425.723 106.449 425.304 107.467 425.345C108.484 425.367 109.418 425.83 110.179 426.414L109.787 426.501L111.171 423.77L112.476 420.999C113.315 419.137 114.121 417.259 114.886 415.362C116.417 411.572 117.812 407.725 119.2 403.875C120.589 400.024 121.974 396.169 123.494 392.364C124.253 390.462 125.044 388.57 125.892 386.705C126.734 384.838 127.628 382.985 128.591 381.182C129.529 379.358 130.534 377.581 131.423 375.738C132.342 373.912 133.207 372.057 134.038 370.188C135.71 366.454 137.238 362.656 138.777 358.863C139.546 356.967 140.327 355.074 141.124 353.188C141.931 351.306 142.761 349.435 143.631 347.582C144.506 345.731 145.422 343.9 146.381 342.091L147.86 339.401L149.41 336.75Z" fill="black"/>
</svg>
