<svg width="30" height="30" viewBox="0 0 143 145" fill="none" xmlns="http://www.w3.org/2000/svg">
<path d="M108.248 78.6691C107.464 66.2788 114.424 52.5979 123.792 48.1123C133.16 43.6265 141.39 50.0343 142.174 62.4246C142.958 74.815 135.998 88.4959 126.63 92.9814C117.327 97.4357 109.134 91.1505 108.263 78.8924" fill="#030000"/>
<path d="M108.248 78.6691C107.464 66.2788 114.424 52.5979 123.792 48.1123C133.16 43.6265 141.39 50.0343 142.174 62.4246C142.958 74.815 135.998 88.4959 126.63 92.9814C117.327 97.4357 109.134 91.1505 108.263 78.8924" stroke="#090000" stroke-width="1.47825" stroke-linecap="round"/>
<path d="M77.425 41.6325C73.4931 28.7145 78.337 12.1087 88.2442 4.54225C98.1512 -3.02362 109.37 1.31546 113.302 14.2338C117.234 27.1518 112.39 43.7576 102.483 51.324C92.6456 58.8367 81.4994 54.6169 77.4973 41.8649" fill="#060000"/>
<path d="M77.425 41.6325C73.4931 28.7145 78.337 12.1087 88.2442 4.54225C98.1512 -3.02362 109.37 1.31546 113.302 14.2338C117.234 27.1518 112.39 43.7576 102.483 51.324C92.6456 58.8367 81.4994 54.6169 77.4973 41.8649" stroke="#090000" stroke-width="1.56196" stroke-linecap="round"/>
<path d="M66.6095 20.0466C71.2614 33.4021 67.9716 48.6549 59.2615 54.1155C50.5514 59.576 39.7198 53.1761 35.0679 39.8206C30.4161 26.465 33.7058 11.2122 42.4159 5.75167C51.126 0.291143 61.9576 6.69105 66.6095 20.0466Z" fill="#030000" stroke="#090000" stroke-width="1.43505" stroke-linecap="round"/>
<path d="M13.076 85.7594C3.77301 78.3587 -1.44488 62.8814 1.4214 51.1899C4.28778 39.4985 14.153 36.0203 23.4563 43.421C32.7593 50.8218 37.9772 66.2991 35.1109 77.9905C32.2647 89.5997 22.5096 93.1246 13.2446 85.8916" fill="#090000"/>
<path d="M13.076 85.7594C3.77301 78.3587 -1.44488 62.8814 1.4214 51.1899C4.28778 39.4985 14.153 36.0203 23.4563 43.421C32.7593 50.8218 37.9772 66.2991 35.1109 77.9905C32.2647 89.5997 22.5096 93.1246 13.2446 85.8916" stroke="#090000" stroke-width="1.38114" stroke-linecap="round"/>
<path d="M19.91 105.83C16.0684 111.09 16.1567 122.233 20.6376 128.197C30.8766 141.824 52.2386 143.198 69.2646 144.019C87.4696 144.896 111.201 146.364 122.647 132.179C126.163 127.821 124.92 120.537 122.736 115.381C119.399 107.499 110.169 103.745 104.201 97.609C98.9164 92.1754 95.8177 83.92 88.9261 80.765C78.8561 76.1549 66.1801 76.3456 55.7091 79.9543C50.2789 81.8257 47.0363 87.5082 42.4001 90.8983C35.5351 95.9171 27.5952 99.4131 20.9832 104.759C20.5904 105.077 19.9117 105.831 19.9117 105.831L19.91 105.83Z" fill="black" stroke="black" stroke-width="0.89702"/>
</svg>
