<svg viewBox="0 0 522 958" fill="none" xmlns="http://www.w3.org/2000/svg">
<path d="M24.664 903.655C6.29103 882.502 -2.77298 850.426 0.749025 819.57C4.37262 783.795 32.382 755.599 24.664 716.92C20.8353 632.66 -6.80297 559.68 17.8622 482.77C43.8832 374.49 130.782 341.59 193.642 290.22C208.625 285.066 219.707 274.539 229.73 262.148C241.483 252.955 251.695 241.618 259.608 230.681C268.656 203.157 263.908 168.914 278.327 141.973C288.365 124.627 296.801 105.493 311.327 91.756C377.02 75.604 371.588 9.58395 395.607 0.867949C429.787 -8.59125 406.931 61.9499 422.265 83.5799C448.706 84.6915 467.379 99.34 481.109 117.81C489.319 136.524 516.123 134.658 520.762 153.1C524.72 169.906 511.627 191.578 499.133 204.627C488.147 216.915 471.999 218.993 463.833 233.387C451.125 261.858 468.106 300.918 469.158 332.901C467.468 366.443 471.968 403.659 451.823 430.681C448.802 452.511 428.628 462.304 421.482 482.369C405.069 510.606 379.129 560.196 380.17 593.919C380.5 646.548 400.121 709.239 408.058 761.159C426.752 770.362 465.653 760.768 459.999 783.503C435.081 824.929 289.349 817.804 261.359 820.324C203.164 818.836 143.359 822.491 86.5787 813.475C52.9777 803.039 47.1727 830.117 55.5507 858.958C63.5808 874.096 74.7017 886.527 89.7187 895.497C115.344 905.093 142.069 917.072 171.951 916.29C204.123 921.466 231.092 917.344 265.026 913.835C285.701 902.38 373.176 906.385 326.474 931.626C232.03 974.087 67.8237 965.473 24.6537 903.66L24.664 903.655Z" fill="black"/>
</svg>
