<svg width="392" height="539" viewBox="0 0 392 539" fill="none" xmlns="http://www.w3.org/2000/svg">
<path d="M264.8 477.6C360.3 485.1 358.8 437.1 358.8 437.1C422.3 397.1 374.3 319.6 374.3 319.6C383.8 230.6 366.3 196.6 366.3 196.6C374.3 126.1 352.8 108.1 352.8 108.1C330.8 23.6 297.8 22.1 297.8 22.1C292.8 13.1 280.3 4.60001 269.8 1.10001C259.3 -2.39999 260.8 20.6 260.8 20.6C211.8 -6.89999 209.3 1.10001 209.3 1.10001C215.3 6.10001 224.3 38.1 224.3 38.1C199.8 60.6 202.3 115.1 202.3 115.1C217.8 135.1 226.8 135.6 226.8 135.6C226.8 135.6 215.3 168.6 220.8 190.1C220.8 190.1 115.8 347.1 179.3 457.6C179.3 457.6 117.3 516.1 57.3 495.1C-2.70001 474.1 57.3 372.1 57.3 372.1C57.3 372.1 63.9 348.2 40.3 365.1C1.29999 393.1 -25.2 525.9 38 534.4C213.7 558.1 230.9 474.9 264.8 477.6Z" fill="black"/>
</svg>
