<?xml version='1.0' encoding='utf-8'?>
<svg xmlns="http://www.w3.org/2000/svg" enable-background="new 0 0 730.2 730.2" version="1.1" viewBox="0 0 730.2 730.2">
<path d="m525.9 541.5s54-59.4 22.7-157.1c0 0 6.3-72.8 27.5-114.8 0 0 3.6-23.8-4.9-43.3-12.2-27.8-33.2-50.6-37.4-99.5s-15-56.9-19-57.2-18.4 3.8-29.1 21.8c0 0-28.5-11.3-70.1 10.6 0 0-30.1-12.7-63.8-17.7 0 0 37 43.9 37.7 60.4s4.5 33.8 9.3 40.1c0 0 11 22 0.4 54 0 0-126.6 91.8-77.7 282.9-103.5-25.1-183.9 5.3-206.1 47.9-6.9 13.3-10.1 34.2-4 52.9 11.6 35.2 51.8 48.8 73.4 56.2 15.1 5.1 41.2 11.6 44.2 5.4 3.1-6.4 5.5-21.1-30.6-30.7-36.5-9.8-77.7-57-35.5-78.5 28.7-14.6 62-0.7 114.3 4.4 9.3 0.9 65.3 6.3 81.8 5.4 26.4-1.4 47.8-0.1 61.3 1.1 0 0 13.4 0.8 24.6-2.4 0 0 27.2 10.8 49.4 1.2 0 0 32.2 3.3 46.7-1.4 0.7-0.2 2.6-0.9 4.2-2.6 6-6.2 4.2-21.7-3.5-26.8-4.9-3.3-10.2-1-13.7-5.4-1.7-2.4-2.1-5-2.1-6.9z" stroke="#fff" stroke-miterlimit="10"/>
<path d="m482 541.3" stroke="#fff" stroke-miterlimit="10"/>
</svg>